
<svg xmlns="http://www.w3.org/2000/svg" version="1.1" xmlns:xlink="http://www.w3.org/1999/xlink" preserveAspectRatio="none" x="0px" y="0px" width="1000px" height="447px" viewBox="0 0 1000 447">
<defs>
<g id="Layer1_0_FILL">
<path fill="#FFF9F5" stroke="none" d="
M 232.85 141.2
Q 224.15 130 211.95 125.55 199.55 121.3 183.9 121.5 159.35 121.3 136.35 132.3 113.1 143.15 97.45 169.45
L 97.45 23.45
Q 75.05 40.45 49.7 49.15 24.35 58.05 0 58.05
L 0 68.1
Q 10.65 70.45 15.45 75.45 20.3 80.9 21.45 88.25 23 95.95 22.6 105.45
L 22.6 275.45
Q 22.4 280.65 21.45 285.3 20.3 292.65 15.45 298.05 10.65 303.1 0 305.4
L 0 315.45
Q 24.35 315.45 49.7 324.35 75.05 333.05 97.45 350.1
L 97.45 201.35
Q 100.55 187.45 108.3 177 115.85 166.55 125.5 160.75 135.35 154.95 144.85 154.95 155.65 154.75 163.4 163.65 170.55 172.35 171.15 191.5
L 171.9 289.95
Q 171.55 312.15 178.3 325.5 185.05 338.65 202.3 344.45 217 349.5 241.9 350.25 246.35 350.25 251.2 350.25
L 273.45 350.25 273.45 340.2
Q 266.85 338.85 262.05 333.05 260.3 330.95 258.75 328.05 253.15 317.8 250.25 301.75 247.35 285.85 246.35 267.5 246.2 262.3 246 257.05 245.4 244.3 245.4 232.3 245.4 218.2 246 207.15 246.2 196.15 246.2 189.75 246.2 174.3 242.9 162.3 239.2 149.9 232.85 141.2
M 402.85 119.95
Q 378.85 119.95 356.2 127.5 333.8 135.2 315.4 150.1 297.45 165.2 286.8 187.45 275.95 209.85 275.55 239.25 275.75 248.55 276.95 257.05 280.4 282.4 293.15 301.15 310.6 325.7 337.85 337.9 365.5 350.25 396.25 350.25 420.25 350.25 442.45 343.1 464.9 335.55 482.7 321.25 501.05 306.75 511.7 285.1 518.1 272.35 520.8 257.05 522.55 246.6 522.55 235.2 522.15 196.7 504.95 171 487.7 145.65 460.85 132.5 433.75 119.95 402.85 119.95
M 373.45 142.55
Q 384.05 132.3 396.05 132.3 409.4 132.3 421.6 144.7 433.75 157.25 441.5 182.2 449.25 207.35 449.45 245.05 449.45 251.25 449.25 257.05 447.9 280.45 442.65 297.3 436.3 318 425.45 328.4 415.2 338.65 403.4 338.65 390.05 338.65 377.7 326.1 365.5 313.55 357.75 288.2 353.3 274.45 351.4 257.05 349.45 242.35 349.45 224.95 349.65 193.8 356 173.15 362.8 152.65 373.45 142.55
M 716.5 126.35
Q 705.3 122.25 694.05 120.9 689.45 120.35 684.6 120.35 684 120.35 683.25 120.35 667.6 120.35 654.05 125.75 653.65 125.95 653.25 126.15 640.3 131.75 630.45 143.35 627.15 147.2 625.6 149.35 624.85 147.6 624.05 146.05 619.8 137.95 611.7 132.7 606.65 129.25 600.1 127.1 585.4 122.05 560.45 121.3 556 121.3 551.15 121.3
L 528.9 121.3 528.9 131.35
Q 535.5 132.7 540.35 138.5 542.05 140.65 543.6 143.55 546.15 148.2 548.05 154 550.6 160.95 552.1 169.85 553.3 176.6 554.25 183.95 554.45 184.35 554.45 184.9 555.4 189.55 555.6 195
L 555.6 364.8
Q 556 374.25 554.45 382 553.3 389.35 548.45 394.75 543.6 399.8 533 402.1
L 533 412.15
Q 557.35 412.15 582.7 421.05 608 429.75 630.45 446.75
L 630.45 349.5
Q 638 350.1 644.95 350.1 679.35 349.9 705.3 338.65 731.4 327.65 748.6 309.25 766 290.9 774.7 268.45 783.25 246.05 783.25 222.65 783.25 208.3 779.75 194.6 776.45 180.85 769.5 168.5 761 153.8 747.05 142.95 733.35 132.3 716.5 126.35
M 662.35 138.3
Q 671.45 138.3 679.35 146.85 683.05 150.7 686.15 156.5 686.9 157.85 687.7 159.4 689.25 162.9 690.6 166.95
L 690.6 167.15
Q 691.35 169.45 692.15 171.95 695.05 181.85 696.6 193.45 697.95 205.05 697.95 217.2 697.95 238.1 693.9 258.8 690 279.5 681.9 297.5 673.4 315.1 660.8 326.5 648.05 337.7 630.45 339.45
L 630.45 171.4
Q 630.45 170.8 630.45 170.4 634.5 160.75 639.15 154 642.05 149.55 645.15 146.45 653.25 138.3 662.35 138.3
M 683.65 83.4
L 683.8 73.35
Q 595.85 3.35 504.35 0.25 502.05 0.25 499.7 0.25 497.4 0.25 495.05 0.25 403.6 3.35 315.6 73.35
L 315.8 83.4
Q 411.15 51.3 499.7 51.3 588.3 51.3 683.65 83.4
M 1000 285.1
Q 1000 269.45 989.2 254.15 978.15 238.5 956.3 225.55 947.8 220.9 934.85 213.95 921.5 207.35 908.15 199.25 894.8 190.9 885.7 181.85 876.65 172.95 876.05 163.25 876.65 154.35 885.55 148.75 894.45 143.15 907.6 142.95 922.1 142.75 936 151.65 950.3 160.15 957.3 180.3
L 981.45 171
Q 976.8 153.8 964.25 142.75 951.5 131.95 934.05 126.5 916.45 121.5 897.15 121.5 868.9 121.7 849.55 130 830.2 138.1 820.35 151.45 810.5 165 810.5 180.85 810.5 199.05 823.85 216.85 837 235.2 864.65 249.15 881.3 258.6 896.35 267.7 911.45 277 921.1 287.05 930.6 297.5 931 309.45 930.6 320.3 925 327.05 919.2 333.85 910.5 336.75 901.4 339.85 891.9 339.85 878 339.65 867.75 334.8 857.5 329.75 857.1 321.85 857.1 318.15 859.8 314.1 862.7 309.45 864.05 305.2 865.2 300.4 865.2 294.95 865.05 280.45 855.55 270.4 845.9 260.55 831 259.75 816.3 260.35 806.65 270.4 796.75 280.05 796 294.95 796.55 312.95 810.5 324.95 824.4 337.3 846.45 343.5 868.7 350.1 894.05 350.1 908.55 350.1 922.65 347.95 936.95 345.65 949.75 340.8 974.9 331.7 987.45 317 1000 302.5 1000 285.1 Z"/>
</g>

<g id="Layer0_0_FILL">
<path fill="#FFF9F5" stroke="none" d="
M 1307.7 611.7
Q 1304.05 612.2 1297 612.25 1289.7 612.35 1286.25 612.75 1265.35 615.2 1243.95 636.3 1241.85 638.35 1240.6 639.2 1238.6 640.55 1236.65 640.6 1234.5 640.65 1232.6 639.05 1230.85 637.55 1230.1 635.3 1228.95 631.85 1230.25 626.4 1230.8 624.1 1229.85 623.35 1229.4 622.95 1228.7 623.05 1228 623.1 1227.5 623.55 1226.8 624.15 1226.3 625.75 1225.25 629 1225.5 632.3 1225.75 635.8 1227.4 638.55 1229.1 641.5 1232.05 643.2 1235.1 644.95 1238.35 644.75 1239.05 648.4 1236.6 652.95 1236 654.1 1234.4 656.6 1232.9 658.95 1232.2 660.3 1230.9 662.95 1229.55 668.15 1228.9 670.45 1229.5 671.5 1230.35 673.05 1233.7 673.05
L 1246.6 673
Q 1250.1 673 1251.8 672.55 1253.85 672 1256.5 670.25
L 1260.95 667.25
Q 1263.4 665.85 1268.15 664.3 1273.45 662.6 1275.45 661.65 1277.1 660.85 1280 659.05 1283.05 657.2 1284.5 656.45 1285.3 656.1 1286.9 655.35 1288.2 654.75 1289.1 654.1 1290.15 653.4 1291.25 652.2 1291.45 652 1293.15 650 1295.25 647.6 1298.85 644.45 1304.6 639.35 1304.8 639.15 1312 632.4 1314.05 626.3 1315.1 623.2 1315.5 617 1315.7 614.55 1315 613.4 1314.1 611.85 1311.85 611.55 1310.35 611.35 1307.7 611.7
M 1297.7 637.75
Q 1300.6 636 1300.75 635.95 1302.5 634.95 1303.95 634.65
L 1293.8 644.45
Q 1291.5 646.65 1290.1 647.35 1287.55 648.65 1285.5 647.65 1285.25 645.05 1285.7 642.6 1292 641.1 1297.7 637.75
M 1306.45 627.45
Q 1304.9 629.9 1300.75 631.85 1295.05 634.5 1294 635.25 1293.8 634.15 1294.35 632.65 1295.05 630.95 1295.35 630.1 1295.85 628.65 1295.65 627.35 1295.4 625.85 1294.25 625.35 1293 624.8 1291.55 625.75 1290.65 626.35 1289.25 627.9 1286.05 631.4 1281.5 633.2 1277 635 1272.25 634.65 1270.15 634.4 1269.1 634.35 1267.35 634.2 1266.05 634.6 1264.7 635 1263.25 636.15 1261.6 637.6 1260.75 638.3 1257.4 641.1 1254.8 640.4 1263.15 634.4 1274.8 629 1281.8 625.7 1296.1 620.1 1303.35 617.2 1307.4 616.7 1307.95 620.25 1307.85 622.3 1307.75 625.35 1306.45 627.45
M 1265.6 639.95
Q 1265.35 640.25 1265.25 640.25
L 1264.9 640.3 1263.8 640.3 1267.25 638.3
Q 1267.35 638.5 1267.15 638.7
L 1266.8 638.95
Q 1266.15 639.3 1265.6 639.95
M 1274.1 625.1
Q 1262 630.1 1255.55 635.5 1251.75 638.65 1250.35 639.45 1247.25 641.3 1244.55 640.65 1250.7 634.85 1255.2 631.25 1261.2 626.4 1266.8 623.2 1280.85 615.4 1293.95 616.7 1291.65 617.9 1274.1 625.1
M 1247.85 647.4
Q 1249.1 646.65 1251 646.4 1252.2 646.25 1254.4 646.3
L 1252.45 652.8 1242.5 652.8
Q 1244.25 650.7 1245.65 649.3 1247.1 647.85 1247.85 647.4
M 1245.05 663
Q 1244.3 664.75 1243.55 665.1 1243.15 665.35 1241.9 665.45
L 1234.9 665.6
Q 1235.8 660.7 1239.05 656.85 1243.45 657.5 1248.45 657.65 1246.2 660.15 1245.05 663
M 1254.15 660.8
Q 1253.95 660.3 1254.3 659.8 1254.6 659.3 1255.1 659.1 1255.7 658.85 1257.25 658.85 1264.4 659 1270.3 655.05 1271.05 654.5 1271.45 654.75 1269.65 657.05 1268.45 658.2 1266.65 659.9 1264.7 660.45 1263.85 660.75 1262.5 660.85 1261.15 660.95 1258.3 660.8 1255.55 660.65 1254.15 660.8
M 1249.45 662.55
Q 1249.8 661.85 1250.15 661.9 1250.15 663.4 1251.2 664.3 1252.15 665.1 1254 665.3
L 1257 665.6
Q 1256.25 665.95 1254.2 667.2 1252.5 668.25 1251.35 668.6 1250.25 668.9 1248.35 668.9 1246.15 668.95 1245.35 669.05 1247.9 666.2 1249.45 662.55
M 1271.5 647.7
Q 1271.55 648.25 1272.35 648.85 1271.45 649.85 1269.15 651.35 1266.95 652.7 1265.8 652.75 1265.85 652.4 1266.75 651.65 1267.25 651.2 1267.95 650.2 1268.7 649.1 1269.05 648.7 1269.2 648.55 1270.65 647.35 1271.25 647 1271.4 647.3 1271.5 647.4 1271.5 647.7
M 1266.6 645.15
Q 1267.2 645.2 1267.5 645.15 1266.55 645.95 1265.05 647.75 1263.5 649.65 1262.65 650.4 1261 651.75 1258.7 652.55 1258.7 651.95 1259.6 651.05
L 1264.95 645.75
Q 1265.4 645.3 1265.65 645.2 1265.95 645.1 1266.6 645.15 Z"/>
</g>

<g id="Layer0_1_FILL">
<path fill="#FFFFFF" stroke="none" d="
M 430.95 465.5
Q 428.7 462.6 425.55 461.45 422.35 460.35 418.3 460.4 411.95 460.35 406.05 463.2 400.05 466 396 472.8
L 396 435.05
Q 390.2 439.45 383.65 441.7 377.1 444 370.8 444
L 370.8 446.6
Q 373.55 447.2 374.8 448.5 376.05 449.9 376.35 451.8 376.75 453.8 376.65 456.25
L 376.65 500.2
Q 376.6 501.55 376.35 502.75 376.05 504.65 374.8 506.05 373.55 507.35 370.8 507.95
L 370.8 510.55
Q 377.1 510.55 383.65 512.85 390.2 515.1 396 519.5
L 396 481.05
Q 396.8 477.45 398.8 474.75 400.75 472.05 403.25 470.55 405.8 469.05 408.25 469.05 411 469 413 471.3 414.85 473.55 415 478.5
L 415.2 503.95
Q 415.1 509.7 416.85 513.15 418.6 516.55 423.05 518.05 426.85 519.35 433.3 519.55 434.45 519.55 435.7 519.55
L 441.45 519.55 441.45 516.95
Q 439.75 516.6 438.5 515.1 438.05 514.55 437.65 513.8 436.2 511.15 435.45 507 434.7 502.9 434.45 498.15 434.4 496.8 434.35 495.45 434.2 492.15 434.2 489.05 434.2 485.4 434.35 482.55 434.4 479.7 434.4 478.05 434.4 474.05 433.55 470.95 432.6 467.75 430.95 465.5
M 505.85 489.8
Q 505.75 479.85 501.3 473.2 496.85 466.65 489.9 463.25 482.9 460 474.9 460 468.7 460 462.85 461.95 457.05 463.95 452.3 467.8 447.65 471.7 444.9 477.45 442.1 483.25 442 490.85 442.05 493.25 442.35 495.45 443.25 502 446.55 506.85 451.05 513.2 458.1 516.35 465.25 519.55 473.2 519.55 479.4 519.55 485.15 517.7 490.95 515.75 495.55 512.05 500.3 508.3 503.05 502.7 504.7 499.4 505.4 495.45 505.85 492.75 505.85 489.8
M 486.95 492.35
Q 486.95 493.95 486.9 495.45 486.55 501.5 485.2 505.85 483.55 511.2 480.75 513.9 478.1 516.55 475.05 516.55 471.6 516.55 468.4 513.3 465.25 510.05 463.25 503.5 462.1 499.95 461.6 495.45 461.1 491.65 461.1 487.15 461.15 479.1 462.8 473.75 464.55 468.45 467.3 465.85 470.05 463.2 473.15 463.2 476.6 463.2 479.75 466.4 482.9 469.65 484.9 476.1 486.9 482.6 486.95 492.35
M 499.95 429.05
Q 499.35 429.05 498.75 429.05 475.1 429.85 452.35 447.95
L 452.4 450.55
Q 477.05 442.25 499.95 442.25 522.85 442.25 547.5 450.55
L 547.55 447.95
Q 524.8 429.85 501.15 429.05 500.55 429.05 499.95 429.05
M 572.35 479.3
Q 571.5 475.75 569.7 472.55 567.5 468.75 563.9 465.95 560.35 463.2 556 461.65 553.1 460.6 550.2 460.25 549 460.1 547.75 460.1 547.6 460.1 547.4 460.1 543.35 460.1 539.85 461.5 539.75 461.55 539.65 461.6 536.3 463.05 533.75 466.05 532.9 467.05 532.5 467.6 532.3 467.15 532.1 466.75 531 464.65 528.9 463.3 527.6 462.4 525.9 461.85 522.1 460.55 515.65 460.35 514.5 460.35 513.25 460.35
L 507.5 460.35 507.5 462.95
Q 509.2 463.3 510.45 464.8 510.9 465.35 511.3 466.1 511.95 467.3 512.45 468.8 513.1 470.6 513.5 472.9 513.8 474.65 514.05 476.55 514.1 476.65 514.1 476.8 514.35 478 514.4 479.4
L 514.4 523.3
Q 514.5 525.75 514.1 527.75 513.8 529.65 512.55 531.05 511.3 532.35 508.55 532.95
L 508.55 535.55
Q 514.85 535.55 521.4 537.85 527.95 540.1 533.75 544.5
L 533.75 519.35
Q 535.7 519.5 537.5 519.5 546.4 519.45 553.1 516.55 559.85 513.7 564.3 508.95 568.8 504.2 571.05 498.4 573.25 492.6 573.25 486.55 573.25 482.85 572.35 479.3
M 548.15 469.45
Q 548.35 469.8 548.55 470.2 548.95 471.1 549.3 472.15
L 549.3 472.2
Q 549.5 472.8 549.7 473.45 550.45 476 550.85 479 551.2 482 551.2 485.15 551.2 490.55 550.15 495.9 549.15 501.25 547.05 505.9 544.85 510.45 541.6 513.4 538.3 516.3 533.75 516.75
L 533.75 473.3
Q 533.75 473.15 533.75 473.05 534.8 470.55 536 468.8 536.75 467.65 537.55 466.85 539.65 464.75 542 464.75 544.35 464.75 546.4 466.95 547.35 467.95 548.15 469.45
M 599.7 467.45
Q 602 466 605.4 465.95 609.15 465.9 612.75 468.2 616.45 470.4 618.25 475.6
L 624.5 473.2
Q 623.3 468.75 620.05 465.9 616.75 463.1 612.25 461.7 607.7 460.4 602.7 460.4 595.4 460.45 590.4 462.6 585.4 464.7 582.85 468.15 580.3 471.65 580.3 475.75 580.3 480.45 583.75 485.05 587.15 489.8 594.3 493.4 598.6 495.85 602.5 498.2 606.4 500.6 608.9 503.2 611.35 505.9 611.45 509 611.35 511.8 609.9 513.55 608.4 515.3 606.15 516.05 603.8 516.85 601.35 516.85 597.75 516.8 595.1 515.55 592.45 514.25 592.35 512.2 592.35 511.25 593.05 510.2 593.8 509 594.15 507.9 594.45 506.65 594.45 505.25 594.4 501.5 591.95 498.9 589.45 496.35 585.6 496.15 581.8 496.3 579.3 498.9 576.75 501.4 576.55 505.25 576.7 509.9 580.3 513 583.9 516.2 589.6 517.8 595.35 519.5 601.9 519.5 605.65 519.5 609.3 518.95 613 518.35 616.3 517.1 622.8 514.75 626.05 510.95 629.3 507.2 629.3 502.7 629.3 498.65 626.5 494.7 623.65 490.65 618 487.3 615.8 486.1 612.45 484.3 609 482.6 605.55 480.5 602.1 478.35 599.75 476 597.4 473.7 597.25 471.2 597.4 468.9 599.7 467.45 Z"/>
</g>
</defs>

<g transform="matrix( 1, 0, 0, 1, 0,0) ">
<use xlink:href="#Layer1_0_FILL"/>
</g>

<g transform="matrix( 1, 0, 0, 1, 0,0) ">
<use xlink:href="#Layer0_0_FILL"/>
</g>

<g transform="matrix( 3.8678131103515625, 0, 0, 3.8677978515625, -1436.6,-1659.25) ">
<use xlink:href="#Layer0_1_FILL"/>
</g>
</svg>
