
<svg xmlns="http://www.w3.org/2000/svg" version="1.1" xmlns:xlink="http://www.w3.org/1999/xlink" preserveAspectRatio="none" x="0px" y="0px" width="1000px" height="447px" viewBox="0 0 1000 447">
<defs>
<g id="Layer1_0_FILL">
<path fill="#FFF9F5" stroke="none" d="
M 232.85 141.2
Q 224.15 130 211.95 125.55 199.55 121.3 183.9 121.5 159.35 121.3 136.35 132.3 113.1 143.15 97.45 169.45
L 97.45 23.45
Q 75.05 40.45 49.7 49.15 24.35 58.05 0 58.05
L 0 68.1
Q 10.65 70.45 15.45 75.45 20.3 80.9 21.45 88.25 23 95.95 22.6 105.45
L 22.6 275.45
Q 22.4 280.65 21.45 285.3 20.3 292.65 15.45 298.05 10.65 303.1 0 305.4
L 0 315.45
Q 24.35 315.45 49.7 324.35 75.05 333.05 97.45 350.1
L 97.45 201.35
Q 100.55 187.45 108.3 177 115.85 166.55 125.5 160.75 135.35 154.95 144.85 154.95 155.65 154.75 163.4 163.65 170.55 172.35 171.15 191.5
L 171.9 289.95
Q 171.55 312.15 178.3 325.5 185.05 338.65 202.3 344.45 217 349.5 241.9 350.25 246.35 350.25 251.2 350.25
L 273.45 350.25 273.45 340.2
Q 266.85 338.85 262.05 333.05 260.3 330.95 258.75 328.05 253.15 317.8 250.25 301.75 247.35 285.85 246.35 267.5 246.2 262.3 246 257.05 245.4 244.3 245.4 232.3 245.4 218.2 246 207.15 246.2 196.15 246.2 189.75 246.2 174.3 242.9 162.3 239.2 149.9 232.85 141.2
M 402.85 119.95
Q 378.85 119.95 356.2 127.5 333.8 135.2 315.4 150.1 297.45 165.2 286.8 187.45 275.95 209.85 275.55 239.25 275.75 248.55 276.95 257.05 280.4 282.4 293.15 301.15 310.6 325.7 337.85 337.9 365.5 350.25 396.25 350.25 420.25 350.25 442.45 343.1 464.9 335.55 482.7 321.25 501.05 306.75 511.7 285.1 518.1 272.35 520.8 257.05 522.55 246.6 522.55 235.2 522.15 196.7 504.95 171 487.7 145.65 460.85 132.5 433.75 119.95 402.85 119.95
M 373.45 142.55
Q 384.05 132.3 396.05 132.3 409.4 132.3 421.6 144.7 433.75 157.25 441.5 182.2 449.25 207.35 449.45 245.05 449.45 251.25 449.25 257.05 447.9 280.45 442.65 297.3 436.3 318 425.45 328.4 415.2 338.65 403.4 338.65 390.05 338.65 377.7 326.1 365.5 313.55 357.75 288.2 353.3 274.45 351.4 257.05 349.45 242.35 349.45 224.95 349.65 193.8 356 173.15 362.8 152.65 373.45 142.55
M 716.5 126.35
Q 705.3 122.25 694.05 120.9 689.45 120.35 684.6 120.35 684 120.35 683.25 120.35 667.6 120.35 654.05 125.75 653.65 125.95 653.25 126.15 640.3 131.75 630.45 143.35 627.15 147.2 625.6 149.35 624.85 147.6 624.05 146.05 619.8 137.95 611.7 132.7 606.65 129.25 600.1 127.1 585.4 122.05 560.45 121.3 556 121.3 551.15 121.3
L 528.9 121.3 528.9 131.35
Q 535.5 132.7 540.35 138.5 542.05 140.65 543.6 143.55 546.15 148.2 548.05 154 550.6 160.95 552.1 169.85 553.3 176.6 554.25 183.95 554.45 184.35 554.45 184.9 555.4 189.55 555.6 195
L 555.6 364.8
Q 556 374.25 554.45 382 553.3 389.35 548.45 394.75 543.6 399.8 533 402.1
L 533 412.15
Q 557.35 412.15 582.7 421.05 608 429.75 630.45 446.75
L 630.45 349.5
Q 638 350.1 644.95 350.1 679.35 349.9 705.3 338.65 731.4 327.65 748.6 309.25 766 290.9 774.7 268.45 783.25 246.05 783.25 222.65 783.25 208.3 779.75 194.6 776.45 180.85 769.5 168.5 761 153.8 747.05 142.95 733.35 132.3 716.5 126.35
M 662.35 138.3
Q 671.45 138.3 679.35 146.85 683.05 150.7 686.15 156.5 686.9 157.85 687.7 159.4 689.25 162.9 690.6 166.95
L 690.6 167.15
Q 691.35 169.45 692.15 171.95 695.05 181.85 696.6 193.45 697.95 205.05 697.95 217.2 697.95 238.1 693.9 258.8 690 279.5 681.9 297.5 673.4 315.1 660.8 326.5 648.05 337.7 630.45 339.45
L 630.45 171.4
Q 630.45 170.8 630.45 170.4 634.5 160.75 639.15 154 642.05 149.55 645.15 146.45 653.25 138.3 662.35 138.3
M 683.65 83.4
L 683.8 73.35
Q 595.85 3.35 504.35 0.25 502.05 0.25 499.7 0.25 497.4 0.25 495.05 0.25 403.6 3.35 315.6 73.35
L 315.8 83.4
Q 411.15 51.3 499.7 51.3 588.3 51.3 683.65 83.4
M 1000 285.1
Q 1000 269.45 989.2 254.15 978.15 238.5 956.3 225.55 947.8 220.9 934.85 213.95 921.5 207.35 908.15 199.25 894.8 190.9 885.7 181.85 876.65 172.95 876.05 163.25 876.65 154.35 885.55 148.75 894.45 143.15 907.6 142.95 922.1 142.75 936 151.65 950.3 160.15 957.3 180.3
L 981.45 171
Q 976.8 153.8 964.25 142.75 951.5 131.95 934.05 126.5 916.45 121.5 897.15 121.5 868.9 121.7 849.55 130 830.2 138.1 820.35 151.45 810.5 165 810.5 180.85 810.5 199.05 823.85 216.85 837 235.2 864.65 249.15 881.3 258.6 896.35 267.7 911.45 277 921.1 287.05 930.6 297.5 931 309.45 930.6 320.3 925 327.05 919.2 333.85 910.5 336.75 901.4 339.85 891.9 339.85 878 339.65 867.75 334.8 857.5 329.75 857.1 321.85 857.1 318.15 859.8 314.1 862.7 309.45 864.05 305.2 865.2 300.4 865.2 294.95 865.05 280.45 855.55 270.4 845.9 260.55 831 259.75 816.3 260.35 806.65 270.4 796.75 280.05 796 294.95 796.55 312.95 810.5 324.95 824.4 337.3 846.45 343.5 868.7 350.1 894.05 350.1 908.55 350.1 922.65 347.95 936.95 345.65 949.75 340.8 974.9 331.7 987.45 317 1000 302.5 1000 285.1 Z"/>
</g>

<g id="Layer0_0_FILL">
<path fill="#F53D2D" stroke="none" d="
M 232.75 141.2
Q 224.05 130 211.85 125.55 199.45 121.3 183.8 121.5 159.25 121.3 136.45 132.3 113.2 143.15 97.55 169.45
L 97.55 23.45
Q 75.1 40.45 49.8 49.15 24.45 58.05 0.1 58.05
L 0.1 68.1
Q 10.7 70.45 15.55 75.45 20.4 80.85 21.55 88.2 23.1 95.95 22.7 105.45
L 22.7 275.4
Q 22.5 280.65 21.55 285.3 20.4 292.65 15.55 298.05 10.7 303.1 0.1 305.4
L 0.1 315.45
Q 24.45 315.45 49.8 324.35 75.1 333.05 97.55 350.05
L 97.55 201.35
Q 100.65 187.45 108.4 177 115.95 166.55 125.6 160.75 135.45 154.95 144.95 154.95 155.55 154.75 163.3 163.65 170.45 172.35 171.05 191.5
L 171.8 289.95
Q 171.45 312.15 178.2 325.5 184.95 338.65 202.2 344.45 216.9 349.5 241.8 350.25 246.25 350.25 251.1 350.25
L 273.35 350.25 273.35 340.2
Q 266.75 338.85 261.95 333.05 260.2 330.95 258.65 328 253.05 317.75 250.15 301.7 247.25 285.85 246.25 267.5 246.1 262.25 245.9 257.05 245.3 244.3 245.3 232.3 245.3 218.2 245.9 207.15 246.1 196.15 246.1 189.75 246.1 174.3 242.8 162.3 239.1 149.9 232.75 141.2
M 402.7 119.95
Q 378.75 119.95 356.1 127.5 333.7 135.2 315.3 150.1 297.35 165.2 286.7 187.45 275.85 209.85 275.45 239.25 275.65 248.55 276.85 257.05 280.3 282.4 293.05 301.15 310.5 325.7 337.75 337.9 365.4 350.25 396.15 350.25 420.15 350.25 442.35 343.1 464.8 335.55 482.6 321.25 500.95 306.75 511.6 285.1 518 272.35 520.7 257.05 522.45 246.6 522.45 235.2 522.05 196.7 504.85 171 487.6 145.65 460.75 132.5 433.65 119.95 402.7 119.95
M 373.35 142.55
Q 383.95 132.3 395.95 132.3 409.3 132.3 421.5 144.7 433.65 157.25 441.4 182.2 449.15 207.35 449.35 245.05 449.35 251.25 449.15 257.05 447.8 280.45 442.55 297.3 436.2 317.95 425.35 328.4 415.1 338.65 403.3 338.65 389.95 338.65 377.6 326.1 365.4 313.5 357.65 288.2 353.2 274.45 351.3 257.05 349.35 242.35 349.35 224.95 349.55 193.8 355.9 173.1 362.7 152.6 373.35 142.55
M 716.4 126.3
Q 705.2 122.25 693.95 120.9 689.35 120.3 684.5 120.3 683.9 120.3 683.15 120.3 667.5 120.3 653.95 125.75 653.55 125.95 653.15 126.15 640.2 131.75 630.35 143.35 627.05 147.2 625.5 149.35 624.75 147.6 623.95 146.05 619.7 137.9 611.6 132.7 606.55 129.2 600 127.1 585.3 122.05 560.35 121.3 555.9 121.3 551.05 121.3
L 528.8 121.3 528.8 131.35
Q 535.4 132.7 540.25 138.5 541.95 140.65 543.5 143.55 546.05 148.15 547.95 153.95 550.45 160.95 552 169.85 553.2 176.6 554.15 183.95 554.35 184.35 554.35 184.9 555.3 189.55 555.5 194.95
L 555.5 364.75
Q 555.9 374.25 554.35 382 553.2 389.35 548.35 394.75 543.5 399.75 532.9 402.1
L 532.9 412.15
Q 557.25 412.15 582.6 421.05 607.9 429.75 630.35 446.75
L 630.35 349.5
Q 637.9 350.05 644.85 350.05 679.25 349.9 705.2 338.65 731.3 327.65 748.5 309.25 765.9 290.9 774.6 268.45 783.1 246.05 783.1 222.65 783.1 208.3 779.65 194.6 776.35 180.85 769.4 168.5 760.9 153.8 746.95 142.95 733.25 132.3 716.4 126.3
M 662.25 138.3
Q 671.35 138.3 679.25 146.8 682.95 150.7 686.05 156.5 686.8 157.85 687.6 159.4 689.15 162.85 690.5 166.95
L 690.5 167.1
Q 691.25 169.45 692.05 171.95 694.95 181.8 696.5 193.45 697.85 205.05 697.85 217.2 697.85 238.1 693.8 258.8 689.9 279.5 681.8 297.45 673.3 315.05 660.7 326.5 647.95 337.7 630.35 339.45
L 630.35 171.4
Q 630.35 170.8 630.35 170.4 634.4 160.75 639.05 153.95 641.95 149.55 645.05 146.45 653.15 138.3 662.25 138.3
M 683.55 83.4
L 683.7 73.35
Q 595.75 3.3 504.25 0.25 501.95 0.25 499.6 0.25 497.3 0.25 494.95 0.25 403.5 3.3 315.5 73.35
L 315.7 83.4
Q 411.05 51.3 499.6 51.3 588.2 51.3 683.55 83.4
M 999.9 285.1
Q 999.9 269.45 989.1 254.15 978.05 238.5 956.2 225.55 947.7 220.9 934.75 213.9 921.4 207.35 908.05 199.25 894.7 190.9 885.6 181.8 876.55 172.95 875.95 163.25 876.55 154.35 885.45 148.75 894.3 143.15 907.45 142.95 922 142.75 935.9 151.65 950.2 160.15 957.2 180.25
L 981.35 171
Q 976.7 153.8 964.15 142.75 951.35 131.95 933.95 126.5 916.35 121.5 897.05 121.5 868.8 121.7 849.45 130 830.1 138.1 820.25 151.45 810.4 165 810.4 180.85 810.4 199.05 823.75 216.85 836.9 235.2 864.55 249.1 881.15 258.6 896.25 267.7 911.35 276.95 921 287.05 930.5 297.45 930.85 309.45 930.5 320.3 924.9 327.05 919.1 333.85 910.35 336.75 901.3 339.8 891.8 339.8 877.9 339.65 867.65 334.8 857.4 329.75 857 321.85 857 318.15 859.7 314.1 862.6 309.45 863.95 305.2 865.1 300.35 865.1 294.95 864.95 280.45 855.45 270.4 845.8 260.55 830.9 259.75 816.2 260.35 806.5 270.4 796.65 280.05 795.9 294.95 796.45 312.95 810.4 324.95 824.3 337.3 846.35 343.5 868.6 350.05 893.95 350.05 908.45 350.05 922.55 347.95 936.85 345.6 949.65 340.8 974.75 331.7 987.35 317 999.9 302.5 999.9 285.1 Z"/>
</g>
</defs>

<g transform="matrix( 1, 0, 0, 1, 0,0) ">
<use xlink:href="#Layer1_0_FILL"/>
</g>

<g transform="matrix( 1, 0, 0, 1, 0,0) ">
<use xlink:href="#Layer0_0_FILL"/>
</g>
</svg>
